<?xml version="1.0" encoding="UTF-8" standalone="no"?>
<svg
   enable-background="new 0 0 100 100"
   viewBox="0 0 100 100"
   id="x"
   version="1.1"
   sodipodi:docname="center cat white.svg"
   xml:space="preserve"
   inkscape:export-filename="leetcode-whitebar.svg"
   inkscape:export-xdpi="96"
   inkscape:export-ydpi="96"
   inkscape:version="1.3.2 (091e20e, 2023-11-25)"
   xmlns:inkscape="http://www.inkscape.org/namespaces/inkscape"
   xmlns:sodipodi="http://sodipodi.sourceforge.net/DTD/sodipodi-0.dtd"
   xmlns="http://www.w3.org/2000/svg"
   xmlns:svg="http://www.w3.org/2000/svg"><defs
     id="defs2" /><sodipodi:namedview
     id="namedview2"
     pagecolor="#ffffff"
     bordercolor="#000000"
     borderopacity="0.25"
     inkscape:showpageshadow="2"
     inkscape:pageopacity="0.0"
     inkscape:pagecheckerboard="0"
     inkscape:deskcolor="#d1d1d1"
     inkscape:zoom="2.36"
     inkscape:cx="50"
     inkscape:cy="49.788136"
     inkscape:window-width="1712"
     inkscape:window-height="960"
     inkscape:window-x="0"
     inkscape:window-y="39"
     inkscape:window-maximized="0"
     inkscape:current-layer="x" /><g
     id="g9-7-3"
     inkscape:label="center cat ring white"
     style="display:inline"
     transform="matrix(1.7857143,0,0,1.7857143,-7.1428571,-7.1428571)"><path
       fill="#fff"
       fill-rule="evenodd"
       d="m 24.922782,54.183184 c 0,1.511541 -0.01343,3.160496 -0.01343,4.672037 0,0.357274 -0.17458,0.700806 -0.456594,0.920667 -0.282015,0.21986 -0.658034,0.274825 -0.993765,0.178636 C 12.178417,56.244377 4,45.416242 4,32.650585 4,16.834363 16.542926,4 32,4 c 15.457074,0 28,12.834363 28,28.650585 0,12.751916 -8.164988,23.566309 -19.418705,27.276457 -0.335732,0.10993 -0.711751,0.04122 -0.993765,-0.178637 -0.282015,-0.21986 -0.456595,-0.549651 -0.456595,-0.920666 -0.02686,-3.366616 -0.04029,-7.337848 -0.04029,-9.137957 0,-1.800108 -1.718945,-3.284167 -1.718945,-3.284167 0,0 12.690648,-1.59399 12.690648,-12.834363 0,-7.131729 -2.766427,-9.536454 -2.766427,-9.536454 0.590887,-2.55588 0.510312,-4.988088 -0.134293,-7.296624 -0.094,-0.329791 -0.416307,-0.549652 -0.752038,-0.522169 -2.699281,0.247343 -5.170264,1.250457 -7.41295,3.078048 0,0 -3.96163,-1.113044 -6.983213,-1.113044 v 0 c -3.021583,0 -6.983213,1.113044 -6.983213,1.113044 -2.242686,-1.81385 -4.727099,-2.830705 -7.41295,-3.078048 -0.335731,-0.02748 -0.658033,0.192378 -0.752038,0.522169 -0.644605,2.308536 -0.72518,4.740744 -0.147722,7.296624 0,0 -2.752998,2.404725 -2.752998,9.536454 0,11.240373 12.690648,12.834363 12.690648,12.834363 0,0 -1.718945,1.484059 -1.718945,3.284167 v 0.412239 c -0.966907,0.357274 -2.282974,0.687064 -3.760192,0.590875 -4.015348,-0.274825 -4.552518,-4.69952 -6.204316,-5.414067 -1.208634,-0.522169 -2.390408,-0.590875 -3.290168,-0.508428 -0.268585,0.02748 -0.483454,0.219861 -0.5506,0.480945 -0.06715,0.261085 0.02686,0.535911 0.241727,0.700806 1.08777,0.755771 2.538129,1.827591 2.941007,2.610845 1.08777,2.088676 2.766427,5.400326 4.928537,5.757599 2.632134,0.439722 4.51223,0.178637 5.707434,-0.164895 v 0 z"
       id="path2-7-0"
       style="fill:#ffffff;stroke-width:1.35844" /></g></svg>
