<?xml version="1.0" encoding="UTF-8" standalone="no"?>
<svg
   enable-background="new 0 0 100 100"
   viewBox="0 0 100 100"
   id="x"
   version="1.1"
   sodipodi:docname="center x text white.svg"
   xml:space="preserve"
   inkscape:export-filename="leetcode-whitebar.svg"
   inkscape:export-xdpi="96"
   inkscape:export-ydpi="96"
   inkscape:version="1.3.2 (091e20e, 2023-11-25)"
   xmlns:inkscape="http://www.inkscape.org/namespaces/inkscape"
   xmlns:sodipodi="http://sodipodi.sourceforge.net/DTD/sodipodi-0.dtd"
   xmlns="http://www.w3.org/2000/svg"
   xmlns:svg="http://www.w3.org/2000/svg"><defs
     id="defs2" /><sodipodi:namedview
     id="namedview2"
     pagecolor="#ffffff"
     bordercolor="#000000"
     borderopacity="0.25"
     inkscape:showpageshadow="2"
     inkscape:pageopacity="0.0"
     inkscape:pagecheckerboard="0"
     inkscape:deskcolor="#d1d1d1"
     inkscape:zoom="2.36"
     inkscape:cx="50"
     inkscape:cy="49.788136"
     inkscape:window-width="1712"
     inkscape:window-height="960"
     inkscape:window-x="0"
     inkscape:window-y="39"
     inkscape:window-maximized="0"
     inkscape:current-layer="x" /><g
     id="g2-3-8"
     style="display:inline;fill:#ffffff"
     inkscape:label="center x text white"
     transform="matrix(1.2195122,0,0,1.1933174,-11.097561,-10.381861)"><path
       d="M 0.26847204,3.1019774e-6 V 0.18454863 L 38.799175,55.082594 c 0.188884,0.184842 0.188884,0.371824 0,0.556667 L 0.07788776,99.630907 c -0.18888433,0.184843 0.0017,0.184547 0.19058428,0.184547 H 8.2002915 c 0.1888843,0 0.3798274,2.96e-4 0.5687117,-0.184547 C 9.3356563,99.07638 10.090022,98.521786 10.656675,97.782416 21.234179,85.767678 32.000397,73.569152 42.955668,61.184728 h 0.190585 L 70.344934,99.815453 C 70.344934,100.0003 70.534178,100 70.723062,100 H 99.809415 C 99.998299,100 100,99.815453 100,99.815453 L 59.766146,42.515279 c -0.188884,-0.184841 -0.188884,-0.371823 0,-0.556666 L 96.409195,0.36909415 C 96.598079,0.18425122 96.599421,3.1019774e-6 96.221633,3.1019774e-6 h -7.934842 c -0.188884,0 -0.376805,-3.005022074e-4 -0.565689,0.1845455280226 L 55.800256,36.600714 H 55.609671 L 29.923537,0.18454708 C 29.734653,-2.9430227e-4 29.734275,0 29.545391,0 Z M 13.491187,6.6557768 H 26.14519 L 86.964827,92.975131 c 0,0.184843 0.0013,0.37212 -0.187561,0.37212 H 74.310824 74.123263 L 13.300603,7.024871 c 0,-0.184843 0.0017,-0.3690942 0.190584,-0.3690942 z"
       style="display:inline;fill:#ffffff;fill-rule:evenodd;stroke-width:1.2052"
       id="path8"
       inkscape:label="center x"
       transform="matrix(0.82,0,0,0.83800002,9.1,8.6999997)" /></g></svg>
