<?xml version="1.0" encoding="UTF-8" standalone="no"?>
<svg
   viewBox="0 0 24 24"
   id="leetcode"
   version="1.1"
   sodipodi:docname="leetcode-light.svg"
   inkscape:version="1.3.2 (091e20e, 2023-11-25)"
   xmlns:inkscape="http://www.inkscape.org/namespaces/inkscape"
   xmlns:sodipodi="http://sodipodi.sourceforge.net/DTD/sodipodi-0.dtd"
   xmlns="http://www.w3.org/2000/svg"
   xmlns:svg="http://www.w3.org/2000/svg">
  <defs
     id="defs3" />
  <sodipodi:namedview
     id="namedview3"
     pagecolor="#ffffff"
     bordercolor="#000000"
     borderopacity="0.25"
     inkscape:showpageshadow="2"
     inkscape:pageopacity="0.0"
     inkscape:pagecheckerboard="0"
     inkscape:deskcolor="#d1d1d1"
     inkscape:zoom="128.84447"
     inkscape:cx="5.7433588"
     inkscape:cy="13.53958"
     inkscape:window-width="1712"
     inkscape:window-height="960"
     inkscape:window-x="0"
     inkscape:window-y="39"
     inkscape:window-maximized="0"
     inkscape:current-layer="leetcode" />
  <path
     fill="#B3B1B0"
     d="M22 14.355c0-.742-.564-1.346-1.26-1.346H10.676c-.696 0-1.26.604-1.26 1.346s.563 1.346 1.26 1.346H20.74c.696.001 1.26-.603 1.26-1.346z"
     id="path1" />
  <path
     fill="#E7A41F"
     d="m3.482 18.187 4.313 4.361c.973.979 2.318 1.452 3.803 1.452 1.485 0 2.83-.512 3.805-1.494l2.588-2.637c.51-.514.492-1.365-.039-1.9-.531-.535-1.375-.553-1.884-.039l-2.676 2.607c-.462.467-1.102.662-1.809.662s-1.346-.195-1.81-.662l-4.298-4.363c-.463-.467-.696-1.15-.696-1.863 0-.713.233-1.357.696-1.824l4.285-4.38c.463-.467 1.116-.645 1.822-.645s1.346.195 1.809.662l2.676 2.606c.51.515 1.354.497 1.885-.038.531-.536.549-1.387.039-1.901l-2.588-2.636a4.994 4.994 0 0 0-2.392-1.33l-.034-.007 2.447-2.503c.512-.514.494-1.366-.037-1.901-.531-.535-1.376-.552-1.887-.038l-10.018 10.1C2.509 11.458 2 12.813 2 14.311c0 1.498.509 2.896 1.482 3.876z"
     id="path2" />
  <path
     fill="#070706"
     d="M 8.115,22.814 C 7.9407127,22.716704 7.7811205,22.595158 7.641,22.453 6.314,21.12 4.981,19.793 3.657,18.456 1.668,16.448 1.355,13.519 2.871,11.136 3.1132313,10.77175 3.3945703,10.435082 3.71,10.132 l 9.623,-9.643 c 0.625,-0.626 1.498,-0.652 2.079,-0.067 0.56,0.563 0.527,1.455 -0.078,2.066 -11.0569485,11.157597 -9.5604123,9.740145 -9.7428392,9.927643 -1.0729096,1.22909 -1.1083088,2.723097 0.056691,3.912097 1.4142093,1.444483 3.1603043,3.201414 4.1582666,4.242023 C 10.274119,20.872763 10.268,21.844 9.977,22.265 9.656,22.73 9.237,23.015 8.644,22.993 8.445,22.987 8.281,22.907 8.115,22.814 Z"
     id="path3"
     sodipodi:nodetypes="cccccccccccccc" />
</svg>
