<?xml version="1.0" encoding="UTF-8" standalone="no"?>
<svg
   enable-background="new 0 0 100 100"
   viewBox="0 0 100 100"
   id="x"
   version="1.1"
   sodipodi:docname="x-rounded-inverted.svg"
   inkscape:version="1.3.2 (091e20e, 2023-11-25)"
   xmlns:inkscape="http://www.inkscape.org/namespaces/inkscape"
   xmlns:sodipodi="http://sodipodi.sourceforge.net/DTD/sodipodi-0.dtd"
   xmlns="http://www.w3.org/2000/svg"
   xmlns:svg="http://www.w3.org/2000/svg">
  <defs
     id="defs2" />
  <sodipodi:namedview
     id="namedview2"
     pagecolor="#ffffff"
     bordercolor="#000000"
     borderopacity="0.25"
     inkscape:showpageshadow="2"
     inkscape:pageopacity="0.0"
     inkscape:pagecheckerboard="0"
     inkscape:deskcolor="#d1d1d1"
     inkscape:zoom="5.3459512"
     inkscape:cx="45.642018"
     inkscape:cy="46.483777"
     inkscape:window-width="1712"
     inkscape:window-height="960"
     inkscape:window-x="0"
     inkscape:window-y="39"
     inkscape:window-maximized="0"
     inkscape:current-layer="x" />
  <g
     id="g2">
    <path
       d="M69.7,8.7H30.4c-11.7,0-21.3,9.5-21.3,21.3v41.2c0,11.7,9.5,21.3,21.3,21.3h39.4c11.7,0,21.3-9.5,21.3-21.3V29.9   C91,18.2,81.5,8.7,69.7,8.7z M76.8,78.3l-15.4,0c-0.1,0-0.2,0-0.2-0.1L46.8,57.3c0,0-0.1,0-0.1,0C40.9,64,35.2,70.6,29.6,77.1   c-0.3,0.4-0.7,0.7-1,1c-0.1,0.1-0.2,0.1-0.3,0.1l-4.2,0c-0.1,0-0.2,0-0.1-0.1l20.5-23.8c0.1-0.1,0.1-0.2,0-0.3L24.1,24.3   c0,0,0-0.1,0-0.1h15.5c0.1,0,0.1,0,0.2,0.1L53.4,44c0,0,0,0,0.1,0l16.9-19.7c0.1-0.1,0.2-0.1,0.3-0.1l4.2,0c0.2,0,0.2,0.1,0.1,0.2   L55.6,46.9c-0.1,0.1-0.1,0.2,0,0.3l21.3,31C76.9,78.2,76.9,78.3,76.8,78.3z"
       id="path1"
       style="fill:#ffffff" />
    <path
       d="M37.8,27.8C37.8,27.8,37.8,27.8,37.8,27.8l-6.7,0c-0.1,0-0.1,0.1-0.1,0.2l32.2,46.7c0,0,0,0,0.1,0h6.6   c0.1,0,0.1-0.1,0.1-0.2L37.8,27.8z"
       id="path2"
       style="fill:#ffffff" />
  </g>
</svg>
